<svg width="46" height="57" viewBox="0 0 46 57" fill="none" xmlns="http://www.w3.org/2000/svg">
<path d="M44.8659 14.7557L31.2307 1.51582C30.8505 1.14668 30.3373 0.9375 29.7987 0.9375H2.88302C1.76153 0.9375 0.855469 1.81729 0.855469 2.90625V54.0938C0.855469 55.1827 1.76153 56.0625 2.88302 56.0625H43.434C44.5555 56.0625 45.4615 55.1827 45.4615 54.0938V16.1522C45.4615 15.6293 45.2461 15.1248 44.8659 14.7557ZM40.7855 17.0566H28.861V5.47793L40.7855 17.0566ZM40.8995 51.6328H5.41745V5.36719H24.5524V18.6562C24.5524 19.3416 24.8328 19.9988 25.3319 20.4834C25.8309 20.968 26.5078 21.2402 27.2136 21.2402H40.8995V51.6328Z" fill="#BABABA"/>
</svg>
